<?xml version="1.0" encoding="UTF-8"?>
<svg id="Capa_1" xmlns="http://www.w3.org/2000/svg" version="1.1" viewBox="0 0 920 289.8">
  <!-- Generator: Adobe Illustrator 29.8.2, SVG Export Plug-In . SVG Version: 2.1.1 Build 3)  -->
  <defs>
    <style>
      .st0 {
        fill: #1a2c49;
      }

      .st1 {
        fill: #1c2f4b;
      }

      .st2 {
        fill: #fc8e19;
      }

      .st3 {
        fill: #fd9124;
      }
    </style>
  </defs>
  <path class="st3" d="M112.8,65c.9,1.6-1.6,9.2-3.5,9.7s-12.8-5.8-18.8-6c-41.1-1.2-43,66.2,2,63,5.7-.4,15.6-6.2,16.9-6.1s5,7.4,4.1,9c-2.1,4.1-19.5,8.1-24.1,8.1-58,0-54.1-93.5,8.8-83.7,2.1.3,13.8,4.7,14.6,5.9Z"/>
  <path class="st1" d="M393,136.8v24h-11v-46.4c0-9.5,11.4-20.8,20.8-22.2,38.2-5.6,40,47.8,7.8,49.7-6.8.4-11.6-2.3-17.5-5ZM418.6,127.5c9.2-9.8,2.7-26.5-11-26.2-19.4.4-20.3,30.1-1.2,30.6,4.5.1,9-1.1,12.2-4.4Z"/>
  <g>
    <path class="st1" d="M774,175.8c2,14.8,16.7,32,31,36.5-2.9-6.9-7.3-13.3-8.8-20.7-5.6-28.3,13.2-38.5,20.3-61.3,4-12.9,5.2-26.6,3.5-40,11.4-.2,19.3,21.9,25,24.5s10.1-7.4,10.1-13-5-12.2-3.1-18.5c-22.5-1.7-48.8,6.2-61.4,26.1s-5.5,18.7-9.4,28.6-8.9,16.8-11.2,14.3c2.7-11.8,6.1-26.1-.5-37-.6,0-7.9,5.3-10,6-4.3,1.3,1.6-4.6,2-5.1,9.8-14.5,7-30.3,18.6-44.4,24.7-30.3,72.4-22.3,86,14l-5-.5c1.1,11,5.6,32.6-8.5,37.1-16.2,5.2-16.1-15.7-25.5-22.1,1.6,14.5,0,32.2-5.8,45.7-3.2,7.4-9.6,13.3-11.2,21.3,17.4,8.8,34-9.2,49.5,0l6.5,7c1.3-10.6-7.9-23.4-18.6-24.9-7.4-1-15.2,1.4-22.4-2.1l23.5-4.8c23.8,2.2,32.1,33.8,16,49.8-1.2-6.1-.7-12.6-6.5-16.4-8.3-5.5-15.1.4-23.6,1.3-9.3,1.1-17.7-.9-26.4-3.9-3.4,15.5,1.9,31.7,12,43.5s6.5,4.9,7,6c1,2.4-5.3,1.5-6.5,1.5-21.3-1.4-38.4-12.8-46.3-32.7-.9-2.3-2.1-10.1-3.2-10.8-1.5-1.1-10.3-.3-13.1-1.4l12.5-5c1.1-1.9-.8-2.8,3.5-14,.5,4.9-.6,10.8,0,15.5h0ZM779,126.3c.2-39.9,42.6-57.9,77-46.5-23.3-30.4-70.4-19-82,16l14.1-13.8s-14.1,13.8-12.2,31.8l3,12.5h.1Z"/>
    <path class="st1" d="M217,58.3v34h41v-34h11v82.5c0,2.2-11,2.2-11,0v-38.5h-39.5c-.1,0-1.5,1.4-1.5,1.5v37c0,2.2-11,2.2-11,0V59.8c0-2.3,9-1.4,11-1.5Z"/>
    <rect class="st3" x="717" y="58.3" width="10" height="161"/>
    <path class="st0" d="M674,141.3c-1.8-.3-10.6.4-11,0s.2-3,0-4c-6.3,3-11.1,5.6-18.4,4.9-28.5-2.8-29.7-47.3.9-49.9,12.8-1.1,28.5,8.9,28.5,22.5v26.5ZM638.3,129c7.2,6.5,22.3,4,24.4-6.4,5.6-27.2-31-26.6-29.8-4.8.2,3.4,2.9,9,5.4,11.2h0Z"/>
    <path class="st0" d="M501,141.3c-1.8-.3-10.6.4-11,0s.2-3,0-4c-6.3,3-11.1,5.6-18.4,4.9-28.9-2.9-29.5-47.3.9-49.9,10.3-.9,19.6,3.2,24.7,12.3,5.1,9.1,3.8,8.7,3.8,9.2v27.5ZM474.8,101.6c-20.7.6-19.5,34.5,4.7,30.7,15.6-2.5,14.8-31.2-4.7-30.7Z"/>
    <path class="st3" d="M153.8,92.6c34.8-5,39.8,45.6,7.7,49.6-33.7,4.2-39-45.2-7.7-49.6ZM153.7,102.5c-14.4,3-14.4,27.3.8,29.7,24.7,3.9,23.9-34.8-.8-29.7Z"/>
    <path class="st1" d="M567,141.3h-10v-28.5c0-1-2.1-5.9-3-7-3-3.9-9.3-4.7-13.4-2.4s-4.6,5.5-4.6,6.4v31.5h-11v-29.5c0-.4,1.4-5.3,1.8-6.2,5.9-15.9,27.2-18,36.6-4.2.7,1,3.6,6.8,3.6,7.4v32.5h0Z"/>
    <path class="st0" d="M340.3,103.5c-.6.6-.8,1.6-1.1,2.4.2,6.1,20.2,6,21.7,16.9,2.3,16.8-13.1,23.1-26.9,16.9s-7.6-6.5-3-13.5c4.5,1.5,6.2,5.7,11.5,6.1s8.2-1,8.5-4.6c.5-5.4-11-7-14.8-9.2-16.9-9.9-3.4-33,17.4-24.4,8.4,3.5,7.1,7.1,1.8,13.2-1.8.5-2.8-4-6.2-4.8s-7.4-.5-9,1h.1Z"/>
    <rect class="st1" x="296" y="107.8" width="11" height="33"/>
    <rect class="st0" x="592" y="107.3" width="10" height="34"/>
    <polygon class="st1" points="307 92.3 307 103 296.3 103 296 92.3 307 92.3"/>
    <rect class="st1" x="592" y="92.3" width="10" height="10"/>
  </g>
  <g>
    <path class="st2" d="M69.8,211.9c-.4,2.1-1.4,3.7-3,4.9s-3.6,1.8-6,1.8-3.4-.4-4.9-1.2c-1.4-.8-2.6-2-3.5-3.6s-1.3-3.6-1.3-6,.4-4.4,1.3-6c.9-1.6,2-2.8,3.5-3.6s3.1-1.2,4.9-1.2,4.4.6,6,1.8,2.6,2.8,3,4.9v.4h3.3v-.6c-.6-2.8-2-5.1-4.1-6.7-2.1-1.7-4.9-2.5-8.2-2.5s-4.7.6-6.7,1.6c-1.9,1.1-3.5,2.7-4.6,4.7s-1.6,4.5-1.6,7.2.5,5.2,1.6,7.2c1.1,2.1,2.6,3.7,4.6,4.8,1.9,1.1,4.2,1.7,6.7,1.7s6-.9,8.2-2.6c2.2-1.7,3.5-4,4-6.7v-.6c0,0-3.1,0-3.1,0v.4h-.1Z"/>
    <path class="st2" d="M97.5,195.8c-2-1.1-4.2-1.6-6.7-1.6s-4.7.6-6.7,1.6c-2,1.1-3.6,2.7-4.7,4.8s-1.7,4.5-1.7,7.2.6,5.2,1.7,7.2c1.1,2.1,2.7,3.7,4.7,4.8s4.2,1.7,6.7,1.7,4.7-.6,6.7-1.7c2-1.1,3.6-2.7,4.7-4.8s1.7-4.5,1.7-7.2-.6-5.2-1.7-7.2-2.7-3.6-4.7-4.7h0ZM100.7,207.7c0,2.4-.5,4.4-1.4,6s-2.2,2.8-3.7,3.6c-3.1,1.6-6.9,1.6-9.9,0s-2.7-2-3.6-3.6-1.4-3.6-1.4-6,.5-4.3,1.4-6c.9-1.6,2.1-2.8,3.6-3.6s3.2-1.2,4.9-1.2,3.4.4,4.9,1.2,2.7,2,3.7,3.6c.9,1.6,1.4,3.6,1.4,6h0Z"/>
    <path class="st2" d="M123.8,193.9c-2.3,0-4.3.5-6.1,1.6-1.2.7-2.1,1.6-2.8,2.7v-3.8h-3.1v26.5h3.1v-14.3c0-3.3.8-5.8,2.3-7.5,1.5-1.6,3.6-2.5,6.2-2.5s4.5.8,5.9,2.3,2.2,3.7,2.2,6.6v15.3h3.1v-15.4c0-3.8-1-6.7-3-8.7s-4.6-2.9-7.8-2.9h0Z"/>
    <path class="st2" d="M157.4,208c-1.1-.5-2.6-.9-4.4-1.4-1.6-.4-2.9-.8-3.9-1.2-.9-.4-1.7-.9-2.3-1.6-.6-.6-.9-1.5-.9-2.6s.5-2.2,1.6-3c1.1-.9,2.5-1.3,4.2-1.3s3.6.5,4.7,1.5c1.1,1,1.7,2.2,1.8,3.8v.5h3.1v-.5c-.2-2.5-1.1-4.5-2.9-5.9-1.7-1.4-4-2.1-6.8-2.1s-3.2.3-4.6.9c-1.4.6-2.4,1.5-3.2,2.6s-1.2,2.3-1.2,3.6.5,3.2,1.3,4.2c.9,1,1.9,1.8,3.2,2.3,1.2.5,2.7,1,4.6,1.5,1.5.4,2.8.8,3.7,1.1.8.3,1.5.8,2.1,1.4.5.6.8,1.2.8,2.1,0,1.3-.5,2.4-1.5,3.3-1,.9-2.5,1.4-4.3,1.4s-4-.5-5.3-1.4-1.9-2.1-2.1-3.6v-.5h-3.2v.5c.3,2.5,1.4,4.4,3.3,5.7,1.9,1.3,4.3,2,7.3,2s3.2-.3,4.5-.9c1.4-.6,2.4-1.5,3.2-2.7.8-1.1,1.2-2.4,1.2-3.9s-.4-2.8-1.3-3.8c-.8-.9-1.8-1.6-2.9-2.1h.2Z"/>
    <path class="st2" d="M187,208.6c0,3.3-.8,5.8-2.3,7.5-1.5,1.6-3.6,2.5-6.2,2.5s-4.5-.8-5.9-2.3-2.2-3.7-2.2-6.6v-15.2h-3.1v15.4c0,3.8,1,6.7,3,8.7,2,1.9,4.6,2.9,7.8,2.9s4.3-.5,6-1.6c1.2-.7,2.1-1.6,2.8-2.7v3.9h3.1v-26.5h-3.1v14.2-.2Z"/>
    <rect class="st2" x="200.3" y="169.4" width="3.1" height="51.6"/>
    <rect class="st2" x="471.4" y="169.4" width="3.1" height="51.6"/>
    <polygon class="st2" points="220.9 183 217.7 183 217.7 194.5 211.9 194.5 211.9 197.3 217.7 197.3 217.7 221.4 220.9 221.4 220.9 197.3 228.4 197.3 228.4 194.5 220.9 194.5 220.9 183"/>
    <path class="st2" d="M254.1,195.8c-2-1.1-4.2-1.6-6.7-1.6s-4.7.6-6.7,1.6c-2,1.1-3.6,2.7-4.7,4.8-1.1,2.1-1.7,4.5-1.7,7.2s.6,5.2,1.7,7.2c1.1,2.1,2.7,3.7,4.7,4.8s4.2,1.7,6.7,1.7,4.7-.6,6.7-1.7c2-1.1,3.6-2.7,4.7-4.8s1.7-4.5,1.7-7.2-.6-5.2-1.7-7.2-2.7-3.6-4.7-4.7h0ZM257.3,207.7c0,2.4-.5,4.4-1.4,6s-2.2,2.8-3.7,3.6c-3.1,1.6-6.9,1.6-9.9,0s-2.7-2-3.6-3.6c-.9-1.6-1.4-3.6-1.4-6s.5-4.3,1.4-6c.9-1.6,2.1-2.8,3.6-3.6s3.2-1.2,4.9-1.2,3.4.4,4.9,1.2,2.7,2,3.7,3.6c.9,1.6,1.4,3.6,1.4,6h.1Z"/>
    <path class="st2" d="M275.1,195.5c-1.1.7-1.9,1.5-2.6,2.5v-3.6h-3.1v26.5h3.1v-15.2c0-3.1.8-5.3,2.3-6.6,1.6-1.3,3.6-2,5.9-2h1.2v-3.2h-.5c-2.6,0-4.7.5-6.4,1.6h.1Z"/>
    <rect class="st2" x="291.4" y="194.5" width="3.1" height="26.5"/>
    <polygon class="st2" points="290.4 188.8 291.3 191.6 299 182.3 298 179.2 290.4 188.8"/>
    <path class="st2" d="M326.6,199.5c-.8-1.3-1.8-2.4-3.2-3.3-2-1.4-4.4-2.1-7.1-2.1s-4.7.6-6.6,1.7c-1.9,1.1-3.5,2.7-4.6,4.8-1.1,2-1.6,4.4-1.6,7.1s.5,5.1,1.6,7.2c1.1,2.1,2.6,3.7,4.6,4.8,1.9,1.1,4.2,1.7,6.6,1.7s5.2-.7,7.1-2.1c1.3-.9,2.4-2,3.2-3.3v5h3.1v-26.5h-3.1v5h0ZM325.2,202c.9,1.6,1.3,3.5,1.3,5.7s-.4,4.1-1.3,5.7c-.9,1.6-2.1,2.9-3.6,3.7-1.5.9-3.3,1.3-5.1,1.3s-3.7-.4-5.2-1.3c-1.5-.9-2.7-2.1-3.5-3.7-.8-1.6-1.3-3.6-1.3-5.8s.4-4.2,1.3-5.8c.8-1.6,2-2.8,3.5-3.7,1.5-.8,3.2-1.3,5.2-1.3s3.6.4,5.1,1.3c1.5.9,2.7,2.1,3.6,3.8h0Z"/>
    <polygon class="st2" points="370 216.8 360.8 194.5 357.4 194.5 368.3 220.5 363.4 233 366.6 233 381.9 194.5 378.6 194.5 370 216.8"/>
    <polygon class="st2" points="418.8 216.8 409.7 194.5 406.3 194.5 417.3 221 420.2 221 431.2 194.5 427.8 194.5 418.8 216.8"/>
    <path class="st2" d="M457.9,199.5c-.8-1.3-1.8-2.4-3.2-3.3-2-1.4-4.4-2.1-7.1-2.1s-4.7.6-6.6,1.7c-1.9,1.1-3.5,2.7-4.6,4.8-1.1,2-1.6,4.4-1.6,7.1s.5,5.1,1.6,7.2c1.1,2.1,2.6,3.7,4.6,4.8,1.9,1.1,4.2,1.7,6.6,1.7s5.2-.7,7.1-2.1c1.3-.9,2.4-2,3.2-3.3v5h3.1v-26.5h-3.1v5h0ZM456.6,202c.9,1.6,1.3,3.5,1.3,5.7s-.4,4.1-1.3,5.7c-.9,1.6-2.1,2.9-3.6,3.7-1.5.9-3.3,1.3-5.1,1.3s-3.7-.4-5.2-1.3c-1.5-.9-2.7-2.1-3.5-3.7-.8-1.6-1.3-3.6-1.3-5.8s.4-4.2,1.3-5.8c.8-1.6,2-2.8,3.5-3.7,1.5-.8,3.2-1.3,5.2-1.3s3.6.4,5.1,1.3c1.5.9,2.7,2.1,3.6,3.8h0Z"/>
    <path class="st2" d="M505.2,195.8c-2-1.1-4.2-1.6-6.7-1.6s-4.7.6-6.7,1.6c-2,1.1-3.6,2.7-4.7,4.8s-1.7,4.5-1.7,7.2.6,5.2,1.7,7.2c1.1,2.1,2.7,3.7,4.7,4.8s4.2,1.7,6.7,1.7,4.7-.6,6.7-1.7c2-1.1,3.6-2.7,4.7-4.8,1.1-2.1,1.7-4.5,1.7-7.2s-.6-5.2-1.7-7.2c-1.1-2-2.7-3.6-4.7-4.7h0ZM508.4,207.7c0,2.4-.5,4.4-1.4,6s-2.2,2.8-3.7,3.6c-3.1,1.6-6.9,1.6-9.9,0s-2.7-2-3.6-3.6-1.4-3.6-1.4-6,.5-4.3,1.4-6c.9-1.6,2.1-2.8,3.6-3.6s3.2-1.2,4.9-1.2,3.4.4,4.9,1.2,2.7,2,3.7,3.6c.9,1.6,1.4,3.6,1.4,6h.1Z"/>
    <path class="st2" d="M526.2,195.5c-1.1.7-1.9,1.5-2.6,2.5v-3.6h-3.1v26.5h3.1v-15.2c0-3.1.8-5.3,2.3-6.6,1.6-1.3,3.6-2,5.9-2h1.2v-3.2h-.5c-2.6,0-4.7.5-6.4,1.6h0Z"/>
    <path class="st2" d="M563.3,199.5c-.8-1.3-1.8-2.4-3.2-3.3-2-1.4-4.4-2.1-7.1-2.1s-4.7.6-6.6,1.7c-1.9,1.1-3.5,2.7-4.6,4.8-1.1,2-1.6,4.4-1.6,7.1s.5,5.1,1.6,7.2c1.1,2.1,2.6,3.7,4.6,4.8,1.9,1.1,4.2,1.7,6.6,1.7s5.2-.7,7.1-2.1c1.3-.9,2.4-2,3.2-3.3v5h3.1v-26.5h-3.1v5h0ZM561.9,202c.9,1.6,1.3,3.5,1.3,5.7s-.4,4.1-1.3,5.7c-.9,1.6-2.1,2.9-3.6,3.7-1.5.9-3.3,1.3-5.1,1.3s-3.7-.4-5.2-1.3c-1.5-.9-2.7-2.1-3.5-3.7-.8-1.6-1.3-3.6-1.3-5.8s.4-4.2,1.3-5.8c.8-1.6,2-2.8,3.5-3.7,1.5-.8,3.2-1.3,5.2-1.3s3.6.4,5.1,1.3c1.5.9,2.7,2.1,3.6,3.8h0Z"/>
    <path class="st2" d="M598.2,211.9c-.4,2.1-1.4,3.7-3,4.9s-3.6,1.8-6,1.8-3.4-.4-4.9-1.2c-1.4-.8-2.6-2-3.5-3.6s-1.3-3.6-1.3-6,.4-4.4,1.3-6c.9-1.6,2-2.8,3.5-3.6s3.1-1.2,4.9-1.2,4.4.6,6,1.8,2.6,2.8,3,4.9v.4h3.3v-.6c-.6-2.8-2-5.1-4.1-6.7-2.1-1.7-4.9-2.5-8.2-2.5s-4.7.6-6.7,1.6c-1.9,1.1-3.5,2.7-4.6,4.7s-1.6,4.5-1.6,7.2.5,5.2,1.6,7.2c1.1,2.1,2.6,3.7,4.6,4.8,1.9,1.1,4.2,1.7,6.7,1.7s6-.9,8.2-2.6c2.2-1.7,3.5-4,4-6.7v-.6c0,0-3.1,0-3.1,0v.4h-.1Z"/>
    <path class="st2" d="M606.3,185.8c-.4.4-.7,1-.7,1.7s.2,1.3.7,1.7c.4.4,1,.6,1.6.6s1.2-.2,1.6-.6c.4-.4.7-1,.7-1.7s-.2-1.2-.7-1.7c-.9-.9-2.4-.9-3.2,0h0Z"/>
    <rect class="st2" x="606.3" y="194.5" width="3.1" height="26.5"/>
    <polygon class="st2" points="637.9 181.6 637.2 178.4 628.8 187.4 629.5 190.3 637.9 181.6"/>
    <path class="st2" d="M637.2,195.8c-2-1.1-4.2-1.6-6.7-1.6s-4.7.6-6.7,1.6c-2,1.1-3.6,2.7-4.7,4.8-1.1,2.1-1.7,4.5-1.7,7.2s.6,5.2,1.7,7.2c1.1,2.1,2.7,3.7,4.7,4.8s4.2,1.7,6.7,1.7,4.7-.6,6.7-1.7c2-1.1,3.6-2.7,4.7-4.8,1.1-2.1,1.7-4.5,1.7-7.2s-.6-5.2-1.7-7.2c-1.1-2-2.7-3.6-4.7-4.7h0ZM640.5,207.7c0,2.4-.5,4.4-1.4,6s-2.2,2.8-3.7,3.6c-3.1,1.6-6.9,1.6-9.9,0s-2.7-2-3.6-3.6c-.9-1.6-1.4-3.6-1.4-6s.5-4.3,1.4-6c.9-1.6,2.1-2.8,3.6-3.6s3.2-1.2,4.9-1.2,3.4.4,4.9,1.2,2.7,2,3.7,3.6c.9,1.6,1.4,3.6,1.4,6h0Z"/>
    <path class="st2" d="M671.4,196.9c-2-2-4.6-2.9-7.8-2.9s-4.3.5-6.1,1.6c-1.2.7-2.1,1.6-2.8,2.7v-3.8h-3.1v26.5h3.1v-14.3c0-3.3.8-5.8,2.3-7.5,1.5-1.6,3.6-2.5,6.2-2.5s4.5.8,5.9,2.3,2.2,3.7,2.2,6.6v15.3h3.1v-15.4c0-3.8-1-6.7-3-8.7h0Z"/>
  </g>
</svg>